<svg xmlns="http://www.w3.org/2000/svg" xmlns:xlink="http://www.w3.org/1999/xlink" width="646.001" height="436" viewBox="0 0 646.001 436"><defs><style>.a{fill:#f5f6fa;}.b{filter:url(#a);}</style><filter id="a" x="0" y="0" width="646.001" height="436" filterUnits="userSpaceOnUse"><feOffset dy="10" input="SourceAlpha"/><feGaussianBlur stdDeviation="10" result="b"/><feFlood flood-opacity="0.114"/><feComposite operator="in" in2="b"/><feComposite in="SourceGraphic"/></filter></defs><g class="b" transform="matrix(1, 0, 0, 1, 0, 0)"><path class="a" d="M-1960-2937a25,25,0,0,1-25-25v-238.175a25,25,0,0,1,25-25h185.129a17.594,17.594,0,0,0,5.871-14.289h.124q-.124-1.99-.124-4.008c0-38.4,34.027-69.528,76-69.528s76,31.128,76,69.528q0,3.213-.313,6.354a25.946,25.946,0,0,0,5.964,11.943H-1424a25,25,0,0,1,25,25V-2962a25,25,0,0,1-25,25Z" transform="translate(2015 3333)"/></g></svg>