<svg xmlns="http://www.w3.org/2000/svg" width="39.902" height="37.052" viewBox="0 0 39.902 37.052"><defs><style>.a{fill:#fff;}</style></defs><path class="a" d="M33.185,12.694,25.42,24.573a4.23,4.23,0,0,1,.962,2.7,4.274,4.274,0,1,1-8.548,0,4.684,4.684,0,0,1,.071-.793L12.775,23.5A4.248,4.248,0,0,1,9.81,24.689a4.3,4.3,0,0,1-2.1-.552L2.25,29.248v5.093a3.812,3.812,0,0,0,3.8,3.8h32.3a3.812,3.812,0,0,0,3.8-3.8V15.41l-5.218-3.464a4.271,4.271,0,0,1-3.749.748Z" transform="translate(-2.25 -1.091)"/><path class="a" d="M9.819,18.424A4.275,4.275,0,0,1,14.093,22.7c0,.187-.018.374-.036.552l5.352,2.992a4.236,4.236,0,0,1,2.707-.962,4.472,4.472,0,0,1,.926.1l7.783-12.057a4.229,4.229,0,0,1-.793-2.475,4.274,4.274,0,0,1,8.548,0,4.645,4.645,0,0,1-.116,1.006l3.678,2.458V7.177a3.812,3.812,0,0,0-3.8-3.8H6.052a3.812,3.812,0,0,0-3.8,3.8V27.6l3.562-3.41a4.274,4.274,0,0,1,4.007-5.761Z" transform="translate(-2.25 -3.375)"/></svg>