<svg xmlns="http://www.w3.org/2000/svg" width="35.325" height="28.365" viewBox="0 0 35.325 28.365"><path d="M33.559,20.484H30.026v4.052h1.236a.519.519,0,0,1,.53.507v1.013a.519.519,0,0,1-.53.507H4.062a.519.519,0,0,1-.53-.507V25.043a.519.519,0,0,1,.53-.507H5.3V20.484H1.766A1.908,1.908,0,0,0,0,22.51v6.078a1.908,1.908,0,0,0,1.766,2.026H33.559a1.908,1.908,0,0,0,1.766-2.026V22.51A1.908,1.908,0,0,0,33.559,20.484Zm-5.3,4.052V4.3A1.926,1.926,0,0,0,26.477,2.25H8.853A1.931,1.931,0,0,0,7.065,4.3V24.536Zm-16.6-11.523,1.407-1.6a.537.537,0,0,1,.839.006l2.28,2.634,5.255-5.977a.537.537,0,0,1,.839.006l1.4,1.614a.746.746,0,0,1-.006.962l-7.082,8.054a.537.537,0,0,1-.839-.006l-4.09-4.73a.746.746,0,0,1,0-.962Z" transform="translate(0 -2.25)" fill="#7d81f6"/></svg>