<svg xmlns="http://www.w3.org/2000/svg" width="29.48" height="29.431" viewBox="0 0 29.48 29.431"><g transform="translate(-369.5 -144.592)"><rect width="26" height="26" transform="translate(371.7 146.092)" fill="#7d81f6"/><path d="M481.752,231.076a3.068,3.068,0,0,1-.171,1.093.211.211,0,0,0,.118.29l3.055,1.83a.3.3,0,0,0,.369,0,2.186,2.186,0,0,1,2.107-.158,2.3,2.3,0,1,1-3.041,2.975,2.053,2.053,0,0,1-.158-1.093.171.171,0,0,0-.092-.2l-3.068-1.83c-.224-.145-.211-.132-.4.04a3.843,3.843,0,0,1-3.568.974,3.8,3.8,0,0,1-3.055-3.081,3.676,3.676,0,0,1,1.317-3.844c.105-.092.145-.158.079-.29-.448-.935-.869-1.87-1.3-2.8a.263.263,0,0,0-.25-.158,2.284,2.284,0,0,1-1.593-3.858,2.278,2.278,0,0,1,3.568.316,2.252,2.252,0,0,1-.132,2.686.237.237,0,0,0-.026.29l1.317,2.8c.04.105.105.132.224.105a3.845,3.845,0,0,1,3.16.777,3.912,3.912,0,0,1,1.514,2.66A2.856,2.856,0,0,1,481.752,231.076Zm-4.016,1.712a1.672,1.672,0,0,0,1.712-1.672,1.7,1.7,0,1,0-3.4-.026,1.685,1.685,0,0,0,1.685,1.7Z" transform="translate(-93.296 -70.093)" fill="#fff"/><path d="M571.481,239.9a2.291,2.291,0,1,1-.671-1.633A2.291,2.291,0,0,1,571.481,239.9Z" transform="translate(-176.51 -84.832)" fill="#fff"/><path d="M430.577,285.3a2.284,2.284,0,1,1-2.278,2.251A2.291,2.291,0,0,1,430.577,285.3Z" transform="translate(-54.84 -126.705)" fill="#fff"/><path d="M551.507,269.4c-.013.066-.053.079-.092.105l-1.475,1.119c-.105.079-.158.066-.237-.039s-.329-.448-.5-.658-.066-.158.039-.237l1.475-1.106c.066-.053.132-.079.2.013l.553.737C551.494,269.361,551.494,269.388,551.507,269.4Z" transform="translate(-160.792 -111.91)" fill="#fff"/><path d="M470.258,299.456h-.7c-.118,0-.184-.039-.171-.171v-.843c0-.132.053-.171.171-.158h1.4c.118-.013.171.04.171.158s-.013.566,0,.843-.053.171-.171.171Z" transform="translate(-90.836 -137.969)" fill="#fff"/><path d="M398.978,165.833c-.03-2.118-.01-4.236-.01-6.354v-5.928c0-1.409.02-2.827,0-4.236a7.921,7.921,0,0,0-.081-1.388c-.03-.182-.051-.375-.081-.557a2.655,2.655,0,0,0-.182-.669c-.03-.061-.051-.132-.081-.193a2.605,2.605,0,0,0-.294-.446,1.915,1.915,0,0,0-.253-.314l-.2-.2a2.137,2.137,0,0,0-.365-.314,4.359,4.359,0,0,0-.456-.294l-.193-.081a1.114,1.114,0,0,0-.669-.182l-.486-.081H373.4a5.108,5.108,0,0,0-1.246.132l-.263.091a3.6,3.6,0,0,0-2.381,3.395q-.02,11.147,0,22.284a2.248,2.248,0,0,0,.041.456,3.708,3.708,0,0,0,2.047,2.726.93.93,0,0,0,.679.233l.547.081h22.861c.193.081.365-.01.547-.041a3.164,3.164,0,0,0,.436-.152,3.8,3.8,0,0,0,2.027-2.037,2.736,2.736,0,0,0,.162-.486,1.936,1.936,0,0,0,.122-.76C398.948,168.944,398.988,167.383,398.978,165.833ZM395.8,170.17a.679.679,0,0,1-.679.679H373.371a.679.679,0,0,1-.679-.679V148.423a.679.679,0,0,1,.679-.679h21.746a.679.679,0,0,1,.679.679Z" transform="translate(0 0)" fill="#7d81f6"/></g></svg>