<svg xmlns="http://www.w3.org/2000/svg" width="29.433" height="29.379" viewBox="0 0 29.433 29.379"><g transform="translate(-348.999 -124.09)"><rect width="24" height="24" transform="translate(351.732 127.102)" fill="#7d81f6"/><path d="M378.426,145.3c-.018-2.119-.009-4.229,0-6.348,0-1.968-.009-3.946,0-5.914,0-1.41.018-2.82-.009-4.238a7.246,7.246,0,0,0-.08-1.383c-.018-.186-.044-.364-.071-.55a2.663,2.663,0,0,0-.186-.674L378,126a3.831,3.831,0,0,0-.293-.443,1.775,1.775,0,0,0-.257-.31l-.2-.2a2.536,2.536,0,0,0-.364-.319c-.142-.115-.3-.186-.452-.293a1.813,1.813,0,0,1-.2-.08,1.173,1.173,0,0,0-.665-.177l-.5-.08H352.882a5.319,5.319,0,0,0-1.241.124l-.257.1A3.591,3.591,0,0,0,349,127.691v22.264a2.586,2.586,0,0,0,.035.452,3.73,3.73,0,0,0,2.057,2.722.931.931,0,0,0,.674.231l.55.08h22.822c.2.08.372-.018.559-.044a2.516,2.516,0,0,0,.434-.151,3.778,3.778,0,0,0,2.022-2.03c.071-.16.115-.328.168-.488a2,2,0,0,0,.106-.754C378.4,148.412,378.444,146.851,378.426,145.3Zm-3.174,4.336a.674.674,0,0,1-.674.674H352.856a.674.674,0,0,1-.674-.674V127.913a.674.674,0,0,1,.674-.674h21.723a.674.674,0,0,1,.674.674Z" fill="#7d81f6"/><path d="M494.009,176.644a1.808,1.808,0,0,1-.784.528,2.536,2.536,0,0,1-1.387-.347,4.206,4.206,0,0,0-2.819-.075,1.6,1.6,0,0,0-1.01.739,1,1,0,0,0,.045.92c.271.452.92.573,1.387.709s1.191.332,1.779.5a7.943,7.943,0,0,1,3.317,1.523,4.553,4.553,0,0,1,1.312,4.613,4.613,4.613,0,0,1-3.633,3.151.377.377,0,0,0-.241.075.422.422,0,0,0-.121.377c0,.347.106.678.106,1.025a.924.924,0,0,1-.452.874,1.236,1.236,0,0,1-.528.045l-1.613-.075a1.357,1.357,0,0,1-.543-.121c-.648-.407-.045-1.613-.633-2.111a1.28,1.28,0,0,0-.633-.226,4.824,4.824,0,0,1-2.186-1.085.649.649,0,0,1-.3-.452.809.809,0,0,1,.286-.5l1.266-1.251a1.1,1.1,0,0,1,.482-.347,1.451,1.451,0,0,1,.9.121,8.052,8.052,0,0,0,3.06.271c.543-.045,1.191-.151,1.4-.663a.885.885,0,0,0-.317-1.1,2.8,2.8,0,0,0-1.085-.528c-1.749-.5-3.663-.739-5.035-1.915a4.553,4.553,0,0,1,2.171-7.96.467.467,0,0,0,.271-.105.347.347,0,0,0,.06-.211c.03-.332-.06-.648-.06-.98a.9.9,0,0,1,.362-.844,1.055,1.055,0,0,1,.6-.106,14.009,14.009,0,0,1,1.779,0c.558.075.663.437.693.92s-.06.739-.03,1.116a.256.256,0,0,0,.06.181c.045.075.151.09.241.106a6.241,6.241,0,0,1,2.729,1.085c.256.181.513.452.347.784a1.5,1.5,0,0,1-.241.3l-.769.784Z" transform="translate(-126.808 -41.987)" fill="#fff"/></g></svg>