<svg xmlns="http://www.w3.org/2000/svg" width="20.678" height="36.561" viewBox="0 0 20.678 36.561"><defs><style>.a{fill:#fff;}</style></defs><path class="a" d="M20.611,20.546c-4.611-1.2-6.094-2.437-6.094-4.367,0-2.214,2.052-3.758,5.484-3.758,3.616,0,4.956,1.727,5.078,4.266h4.489a8.1,8.1,0,0,0-6.52-7.739V4.5H16.955V8.887C13.014,9.74,9.846,12.3,9.846,16.22c0,4.692,3.88,7.028,9.547,8.389,5.078,1.219,6.094,3.006,6.094,4.9,0,1.4-1,3.636-5.484,3.636-4.184,0-5.83-1.869-6.053-4.265H9.48c.244,4.448,3.575,6.947,7.475,7.779v4.408h6.094V36.694c3.961-.752,7.109-3.047,7.109-7.211C30.158,23.715,25.222,21.745,20.611,20.546Z" transform="translate(-9.48 -4.5)"/></svg>