<svg xmlns="http://www.w3.org/2000/svg" width="29.784" height="27.657" viewBox="0 0 29.784 27.657"><path d="M25.341,12.5l-5.8,8.867a3.157,3.157,0,0,1,.718,2.014,3.19,3.19,0,1,1-6.381,0,3.5,3.5,0,0,1,.053-.592l-3.829-2.227a3.171,3.171,0,0,1-2.213.891,3.208,3.208,0,0,1-1.569-.412L2.25,24.861v3.8A2.845,2.845,0,0,0,5.088,31.5H29.2a2.845,2.845,0,0,0,2.838-2.838V14.532l-3.895-2.586a3.188,3.188,0,0,1-2.8.558Z" transform="translate(-2.25 -3.844)" fill="#7d81f6"/><path d="M7.9,14.608a3.191,3.191,0,0,1,3.19,3.19c0,.14-.013.279-.027.412l3.995,2.233a3.162,3.162,0,0,1,2.021-.718,3.338,3.338,0,0,1,.691.073l5.809-9a3.157,3.157,0,0,1-.592-1.848,3.19,3.19,0,0,1,6.381,0,3.467,3.467,0,0,1-.086.751l2.745,1.834V6.213a2.845,2.845,0,0,0-2.838-2.838H5.088A2.845,2.845,0,0,0,2.25,6.213V21.454l2.659-2.546a3.19,3.19,0,0,1,2.991-4.3Z" transform="translate(-2.25 -3.375)" fill="#7d81f6"/></svg>