<svg xmlns="http://www.w3.org/2000/svg" width="29.433" height="29.379" viewBox="0 0 29.433 29.379"><g transform="translate(-348.999 -124.09)"><rect width="24" height="24" transform="translate(351.732 127.102)" fill="#7d81f6"/><path d="M417.7,323.589a1.153,1.153,0,0,1,1.046.807,1.206,1.206,0,0,1-.408,1.294q-2.7,2.155-5.391,4.318a2.85,2.85,0,0,1-1.232.621,2.952,2.952,0,0,1-.488.018H398.223c-.461,0-.709-.2-.7-.7v-2.554c0-.071-.009-.133-.009-.2a1.516,1.516,0,0,1-.027-.718.594.594,0,0,1,.364-.523.807.807,0,0,1,.355-.053H399.9a.6.6,0,0,0,.434-.16c.239-.213.5-.408.745-.612l.745-.6a4.353,4.353,0,0,1,2.252-.958,5.163,5.163,0,0,1,.638-.053h2.367q.505-.018,1.011,0c.452-.009.9-.009,1.339,0s.647-.009.975,0h.089c.106.009.213.035.319.053a1.224,1.224,0,0,1-.071,2.385l-.275.044h-2.89a.523.523,0,0,0-.541.532.532.532,0,0,0,.514.541,5.122,5.122,0,0,0,.638,0h2.27c.55.018,1.091.018,1.64,0a2.048,2.048,0,0,0,1.25-.479l2.89-2.305c.213-.168.417-.355.647-.505A.947.947,0,0,1,417.7,323.589Z" transform="translate(-44.161 -181.729)" fill="#fff"/><path d="M378.426,145.3c-.018-2.119-.009-4.229,0-6.348,0-1.968-.009-3.946,0-5.914,0-1.41.018-2.82-.009-4.238a7.246,7.246,0,0,0-.08-1.383c-.018-.186-.044-.364-.071-.55a2.663,2.663,0,0,0-.186-.674L378,126a3.831,3.831,0,0,0-.293-.443,1.775,1.775,0,0,0-.257-.31l-.2-.2a2.536,2.536,0,0,0-.364-.319c-.142-.115-.3-.186-.452-.293a1.813,1.813,0,0,1-.2-.08,1.173,1.173,0,0,0-.665-.177l-.5-.08H352.882a5.319,5.319,0,0,0-1.241.124l-.257.1A3.591,3.591,0,0,0,349,127.691v22.264a2.586,2.586,0,0,0,.035.452,3.73,3.73,0,0,0,2.057,2.722.931.931,0,0,0,.674.231l.55.08h22.822c.2.08.372-.018.559-.044a2.516,2.516,0,0,0,.434-.151,3.778,3.778,0,0,0,2.022-2.03c.071-.16.115-.328.168-.488a2,2,0,0,0,.106-.754C378.4,148.412,378.444,146.851,378.426,145.3Zm-3.174,4.336a.674.674,0,0,1-.674.674H352.856a.674.674,0,0,1-.674-.674V127.913a.674.674,0,0,1,.674-.674h21.723a.674.674,0,0,1,.674.674Z" fill="#7d81f6"/><path d="M490.062,174.351a1.064,1.064,0,0,1-.461.31,1.491,1.491,0,0,1-.816-.2,2.474,2.474,0,0,0-1.658-.044.939.939,0,0,0-.594.434.585.585,0,0,0,.027.541c.16.266.541.337.816.417s.7.2,1.046.293a4.672,4.672,0,0,1,1.951.9,2.678,2.678,0,0,1,.771,2.713,2.713,2.713,0,0,1-2.137,1.853.222.222,0,0,0-.142.044.248.248,0,0,0-.071.222c0,.2.062.4.062.6a.544.544,0,0,1-.266.514.727.727,0,0,1-.31.027l-.949-.044a.8.8,0,0,1-.319-.071c-.381-.239-.027-.949-.372-1.241a.753.753,0,0,0-.372-.133,2.837,2.837,0,0,1-1.286-.638.381.381,0,0,1-.177-.266.476.476,0,0,1,.168-.293l.745-.736a.647.647,0,0,1,.284-.2.853.853,0,0,1,.532.071,4.736,4.736,0,0,0,1.8.16c.319-.027.7-.089.825-.39a.52.52,0,0,0-.186-.647,1.649,1.649,0,0,0-.638-.31,7.49,7.49,0,0,1-2.961-1.126,2.678,2.678,0,0,1,1.277-4.681.275.275,0,0,0,.16-.062.2.2,0,0,0,.035-.124c.018-.2-.035-.381-.035-.576a.53.53,0,0,1,.213-.5.62.62,0,0,1,.355-.062,8.237,8.237,0,0,1,1.046,0c.328.044.39.257.408.541s-.035.434-.018.656a.151.151,0,0,0,.035.106c.027.044.089.053.142.062a3.671,3.671,0,0,1,1.6.638c.151.106.3.266.2.461a.884.884,0,0,1-.142.177l-.452.461Z" transform="translate(-123.419 -42.821)" fill="#fff"/></g></svg>