<svg xmlns="http://www.w3.org/2000/svg" width="29.02" height="27.493" viewBox="0 0 29.02 27.493"><path d="M31.993,27.411v1.527a3.064,3.064,0,0,1-3.055,3.055H7.555A3.054,3.054,0,0,1,4.5,28.938V7.555A3.054,3.054,0,0,1,7.555,4.5H28.938a3.064,3.064,0,0,1,3.055,3.055V9.082H18.246a3.054,3.054,0,0,0-3.055,3.055V24.356a3.054,3.054,0,0,0,3.055,3.055ZM18.246,24.356H33.52V12.137H18.246Zm6.109-3.818a2.291,2.291,0,1,1,2.291-2.291A2.288,2.288,0,0,1,24.356,20.537Z" transform="translate(-4.5 -4.5)" fill="#7d81f6"/></svg>