<svg xmlns="http://www.w3.org/2000/svg" width="29.478" height="29.428" viewBox="0 0 29.478 29.428"><g transform="translate(-368.2 -143.293)"><rect width="26" height="26" transform="translate(370.172 145.492)" fill="#7d81f6"/><path d="M397.675,164.534c-.03-2.119-.01-4.238-.01-6.357v-5.925c0-1.416.03-2.822,0-4.238a7.968,7.968,0,0,0-.08-1.386c-.03-.191-.05-.372-.08-.552a2.7,2.7,0,0,0-.181-.673,1.44,1.44,0,0,1-.08-.191,4.991,4.991,0,0,0-.291-.452,1.951,1.951,0,0,0-.261-.311l-.2-.2a2.311,2.311,0,0,0-.372-.321,5,5,0,0,0-.452-.291l-.191-.08a1.134,1.134,0,0,0-.673-.181l-.482-.08H372.1a5.191,5.191,0,0,0-1.245.131l-.261.09a3.607,3.607,0,0,0-2.38,3.394q-.02,11.147,0,22.284a2.388,2.388,0,0,0,.04.462,3.709,3.709,0,0,0,2.049,2.722.945.945,0,0,0,.683.231l.542.08h22.857a.943.943,0,0,0,.552-.04,2.239,2.239,0,0,0,.432-.161,3.756,3.756,0,0,0,2.029-2.029,2.822,2.822,0,0,0,.161-.492,1.917,1.917,0,0,0,.121-.753C397.645,167.637,397.685,166.08,397.675,164.534Zm-3.183,4.338a.673.673,0,0,1-.673.673H372.066a.673.673,0,0,1-.673-.673V147.12a.673.673,0,0,1,.673-.673h21.752a.673.673,0,0,1,.673.673Z" transform="translate(0)" fill="#7d81f6"/><path d="M435.7,212.194v-2.209h5.081V206.6H426.949v3.384h5.081V212.2c-4.127.191-7.231,1-7.231,1.988s3.1,1.8,7.231,1.988v7.11H435.7v-7.12c4.127-.191,7.221-1,7.221-1.988s-3.093-1.788-7.221-1.978m0,3.364h0c-.1.01-.633.04-1.818.04-.944,0-1.617-.03-1.848-.04h0c-3.645-.161-6.377-.793-6.377-1.557s2.732-1.4,6.377-1.557v2.48c.241.02.924.06,1.858.06,1.135,0,1.707-.05,1.808-.06v-2.48c3.645.171,6.357.8,6.357,1.557s-2.711,1.4-6.357,1.557" transform="translate(-50.916 -56.949)" fill="#fff"/></g></svg>