<svg xmlns="http://www.w3.org/2000/svg" width="29.95" height="29.979" viewBox="0 0 29.95 29.979"><g transform="translate(-349 -116.535)"><circle cx="11" cy="11" r="11" transform="translate(353 118.395)" fill="#7d81f6"/><path d="M352.912,135.322a12.657,12.657,0,0,1-.781-10.52,12.239,12.239,0,0,1,4.484-5.891,12.606,12.606,0,0,1,14.024-.472,12.314,12.314,0,0,1,5.564,7.534,12.516,12.516,0,0,1-1.162,9.331l.345.027c.536.009,1.08.027,1.616,0a1.871,1.871,0,0,1,1.834,1.407,3.041,3.041,0,0,1,.109.808q.009,3.477,0,6.953a1.835,1.835,0,0,1-1.87,2.006q-13.044,0-26.088.009a1.95,1.95,0,0,1-1.87-1.434,3.242,3.242,0,0,1-.109-.781c-.009-2.306-.018-4.611.009-6.917a2.051,2.051,0,0,1,1.071-1.861,1.488,1.488,0,0,1,.654-.172c.59-.027,1.189-.009,1.779-.018Zm11.065,3.758a10.09,10.09,0,1,0-9.894-9.921A9.913,9.913,0,0,0,363.977,139.08Zm-6.59.935-.118-.136c-.717-.572-1.434-1.144-2.16-1.7a.7.7,0,0,0-.4-.127c-.88-.009-1.761.009-2.641-.009-.281-.009-.354.1-.354.363.009,1.643.009,3.277.009,4.92,0,.463,0,.463.472.463h23.646c.4,0,.4,0,.4-.4,0-1.661,0-3.331.009-4.992,0-.263-.091-.354-.354-.354-.862.009-1.734.009-2.605,0a.735.735,0,0,0-.536.218q-.7.6-1.416,1.171c-.236.182-.49.336-.726.508a.472.472,0,0,0,.272.073H372.7c.49,0,.644.154.644.663v.409c0,.6-.145.744-.735.744H355.363a1.461,1.461,0,0,1-.2,0,.508.508,0,0,1-.554-.545c-.009-.172,0-.345,0-.526,0-.6.145-.744.735-.744Z" transform="translate(0 0)" fill="#7d81f6"/><path d="M452.9,212.724l10-11.113-1.645-1.711-5.851,6.712L453.02,204.5Z" transform="translate(-95.197 -76.637)" fill="#fff"/><path d="M496.991,200.5,487,211.624l1.645,1.7,5.84-6.7,2.386,2.1Z" transform="translate(-126.439 -77.188)" fill="#fff"/></g></svg>