<svg xmlns="http://www.w3.org/2000/svg" width="47.325" height="38" viewBox="0 0 47.325 38"><defs><style>.a{fill:#fff;}</style></defs><path class="a" d="M44.959,26.679H40.226v5.429h1.656a.7.7,0,0,1,.71.679v1.357a.7.7,0,0,1-.71.679H5.442a.7.7,0,0,1-.71-.679V32.786a.7.7,0,0,1,.71-.679H7.1V26.679H2.366A2.555,2.555,0,0,0,0,29.393v8.143A2.555,2.555,0,0,0,2.366,40.25H44.959a2.555,2.555,0,0,0,2.366-2.714V29.393A2.555,2.555,0,0,0,44.959,26.679Zm-7.1,5.429V4.99a2.581,2.581,0,0,0-2.388-2.74H11.861a2.587,2.587,0,0,0-2.4,2.74V32.107ZM15.617,16.67,17.5,14.524a.719.719,0,0,1,1.124.008l3.054,3.529,7.04-8.007a.719.719,0,0,1,1.124.008l1.871,2.163a1,1,0,0,1-.007,1.289L22.221,24.3A.719.719,0,0,1,21.1,24.3l-5.479-6.336a1,1,0,0,1,0-1.289Z" transform="translate(0 -2.25)"/></svg>