<svg xmlns="http://www.w3.org/2000/svg" width="38.878" height="36.832" viewBox="0 0 38.878 36.832"><defs><style>.a{fill:#fff;}</style></defs><path class="a" d="M41.332,35.193V37.24a4.1,4.1,0,0,1-4.092,4.092H8.592A4.091,4.091,0,0,1,4.5,37.24V8.592A4.091,4.091,0,0,1,8.592,4.5H37.24a4.1,4.1,0,0,1,4.092,4.092v2.046H22.916a4.091,4.091,0,0,0-4.092,4.092V31.1a4.091,4.091,0,0,0,4.092,4.092ZM22.916,31.1H43.378V14.731H22.916ZM31.1,25.985a3.069,3.069,0,1,1,3.069-3.069A3.065,3.065,0,0,1,31.1,25.985Z" transform="translate(-4.5 -4.5)"/></svg>